<mxfile host="app.diagrams.net" modified="2023-04-04T13:08:51.457Z" agent="Mozilla/5.0 (Macintosh; Intel Mac OS X 10.15; rv:109.0) Gecko/20100101 Firefox/111.0" etag="DvPYmGKFBZZXbuk95kga" version="21.1.4" type="google">
  <diagram name="Pagina-1" id="mDhXcnNSgWNvu9TeKdS2">
    <mxGraphModel grid="1" page="1" gridSize="10" guides="1" tooltips="1" connect="1" arrows="1" fold="1" pageScale="1" pageWidth="827" pageHeight="1169" math="0" shadow="0">
      <root>
        <mxCell id="0" />
        <mxCell id="1" parent="0" />
        <mxCell id="J6DOonJrNVaHgL9GVh4X-14" style="edgeStyle=orthogonalEdgeStyle;rounded=0;orthogonalLoop=1;jettySize=auto;html=1;entryX=0.5;entryY=0;entryDx=0;entryDy=0;" edge="1" parent="1" source="J6DOonJrNVaHgL9GVh4X-1" target="J6DOonJrNVaHgL9GVh4X-2">
          <mxGeometry relative="1" as="geometry" />
        </mxCell>
        <mxCell id="J6DOonJrNVaHgL9GVh4X-1" value="START" style="ellipse;whiteSpace=wrap;html=1;" vertex="1" parent="1">
          <mxGeometry x="340" y="30" width="120" height="80" as="geometry" />
        </mxCell>
        <mxCell id="J6DOonJrNVaHgL9GVh4X-15" value="" style="edgeStyle=orthogonalEdgeStyle;rounded=0;orthogonalLoop=1;jettySize=auto;html=1;" edge="1" parent="1" source="J6DOonJrNVaHgL9GVh4X-2" target="J6DOonJrNVaHgL9GVh4X-6">
          <mxGeometry relative="1" as="geometry" />
        </mxCell>
        <mxCell id="J6DOonJrNVaHgL9GVh4X-2" value="&lt;div&gt;SCRIVI UN NUMERO&lt;/div&gt;&lt;div&gt;DECIMALE&lt;br&gt;&lt;/div&gt;" style="shape=parallelogram;perimeter=parallelogramPerimeter;whiteSpace=wrap;html=1;fixedSize=1;" vertex="1" parent="1">
          <mxGeometry x="315" y="130" width="170" height="40" as="geometry" />
        </mxCell>
        <mxCell id="J6DOonJrNVaHgL9GVh4X-4" value="FLOAT" style="shape=parallelogram;perimeter=parallelogramPerimeter;whiteSpace=wrap;html=1;fixedSize=1;" vertex="1" parent="1">
          <mxGeometry x="330" y="190" width="120" height="30" as="geometry" />
        </mxCell>
        <mxCell id="J6DOonJrNVaHgL9GVh4X-28" style="edgeStyle=orthogonalEdgeStyle;rounded=0;orthogonalLoop=1;jettySize=auto;html=1;entryX=0.5;entryY=0;entryDx=0;entryDy=0;" edge="1" parent="1" source="J6DOonJrNVaHgL9GVh4X-6" target="J6DOonJrNVaHgL9GVh4X-7">
          <mxGeometry relative="1" as="geometry" />
        </mxCell>
        <mxCell id="J6DOonJrNVaHgL9GVh4X-6" value="INT = FLOAT" style="rounded=0;whiteSpace=wrap;html=1;" vertex="1" parent="1">
          <mxGeometry x="330" y="240" width="120" height="30" as="geometry" />
        </mxCell>
        <mxCell id="J6DOonJrNVaHgL9GVh4X-29" style="edgeStyle=orthogonalEdgeStyle;rounded=0;orthogonalLoop=1;jettySize=auto;html=1;" edge="1" parent="1" source="J6DOonJrNVaHgL9GVh4X-7" target="J6DOonJrNVaHgL9GVh4X-8">
          <mxGeometry relative="1" as="geometry" />
        </mxCell>
        <mxCell id="J6DOonJrNVaHgL9GVh4X-7" value="LONG = FLOAT" style="rounded=0;whiteSpace=wrap;html=1;" vertex="1" parent="1">
          <mxGeometry x="330" y="320" width="120" height="30" as="geometry" />
        </mxCell>
        <mxCell id="J6DOonJrNVaHgL9GVh4X-30" style="edgeStyle=orthogonalEdgeStyle;rounded=0;orthogonalLoop=1;jettySize=auto;html=1;" edge="1" parent="1" source="J6DOonJrNVaHgL9GVh4X-8" target="J6DOonJrNVaHgL9GVh4X-11">
          <mxGeometry relative="1" as="geometry" />
        </mxCell>
        <mxCell id="J6DOonJrNVaHgL9GVh4X-8" value="DOUBLE = FLOAT" style="rounded=0;whiteSpace=wrap;html=1;" vertex="1" parent="1">
          <mxGeometry x="330" y="380" width="120" height="30" as="geometry" />
        </mxCell>
        <mxCell id="J6DOonJrNVaHgL9GVh4X-32" style="edgeStyle=orthogonalEdgeStyle;rounded=0;orthogonalLoop=1;jettySize=auto;html=1;entryX=0.5;entryY=0;entryDx=0;entryDy=0;" edge="1" parent="1" source="J6DOonJrNVaHgL9GVh4X-9" target="J6DOonJrNVaHgL9GVh4X-10">
          <mxGeometry relative="1" as="geometry" />
        </mxCell>
        <mxCell id="J6DOonJrNVaHgL9GVh4X-9" value="DOUBLE" style="shape=parallelogram;perimeter=parallelogramPerimeter;whiteSpace=wrap;html=1;fixedSize=1;" vertex="1" parent="1">
          <mxGeometry x="320" y="520" width="120" height="30" as="geometry" />
        </mxCell>
        <mxCell id="J6DOonJrNVaHgL9GVh4X-33" style="edgeStyle=orthogonalEdgeStyle;rounded=0;orthogonalLoop=1;jettySize=auto;html=1;entryX=0.5;entryY=0;entryDx=0;entryDy=0;" edge="1" parent="1" source="J6DOonJrNVaHgL9GVh4X-10" target="J6DOonJrNVaHgL9GVh4X-13">
          <mxGeometry relative="1" as="geometry" />
        </mxCell>
        <mxCell id="J6DOonJrNVaHgL9GVh4X-10" value="INT" style="shape=parallelogram;perimeter=parallelogramPerimeter;whiteSpace=wrap;html=1;fixedSize=1;" vertex="1" parent="1">
          <mxGeometry x="315" y="580" width="120" height="30" as="geometry" />
        </mxCell>
        <mxCell id="J6DOonJrNVaHgL9GVh4X-31" style="edgeStyle=orthogonalEdgeStyle;rounded=0;orthogonalLoop=1;jettySize=auto;html=1;" edge="1" parent="1" source="J6DOonJrNVaHgL9GVh4X-11" target="J6DOonJrNVaHgL9GVh4X-9">
          <mxGeometry relative="1" as="geometry" />
        </mxCell>
        <mxCell id="J6DOonJrNVaHgL9GVh4X-11" value="LONG" style="shape=parallelogram;perimeter=parallelogramPerimeter;whiteSpace=wrap;html=1;fixedSize=1;" vertex="1" parent="1">
          <mxGeometry x="330" y="450" width="120" height="30" as="geometry" />
        </mxCell>
        <mxCell id="J6DOonJrNVaHgL9GVh4X-12" style="edgeStyle=orthogonalEdgeStyle;rounded=0;orthogonalLoop=1;jettySize=auto;html=1;exitX=0.5;exitY=1;exitDx=0;exitDy=0;" edge="1" parent="1" source="J6DOonJrNVaHgL9GVh4X-10" target="J6DOonJrNVaHgL9GVh4X-10">
          <mxGeometry relative="1" as="geometry" />
        </mxCell>
        <mxCell id="J6DOonJrNVaHgL9GVh4X-13" value="END" style="ellipse;whiteSpace=wrap;html=1;" vertex="1" parent="1">
          <mxGeometry x="320" y="660" width="120" height="50" as="geometry" />
        </mxCell>
      </root>
    </mxGraphModel>
  </diagram>
</mxfile>
